<?xml version="1.0" encoding="utf-8"?>
<svg viewBox="-257.606 -509.228 1518.348 1518.393" xmlns="http://www.w3.org/2000/svg">
  <g id="Layer_1_00000075861171413141365320000007363387950718676396_" transform="matrix(1, 0, 0, 1, -257.3016931523821, -509.04995010370595)">
    <g id="_x3C_Group_x3E__00000109734504137290142830000002809576029477770116_">
      <g id="_x3C_Group_x3E_">
        <path id="_x3C_Path_x3E_" class="st0" d="M729.7,1.2c0-0.4,0-0.8,0-1.2c14.8,0,29.6,0,44.4,0c0,0.4,0,0.8,0.1,1.1 C759.4,1.1,744.5,1.2,729.7,1.2z" style="fill: rgb(83, 77, 73);"/>
        <path id="_x3C_Path_x3E__00000153664038495475487900000017690966336787040171_" class="st1" d="M1517,737.9 c0.4,0.1,0.7,0.1,1.1,0.1c0,14,0,28,0,42c-0.4,0-0.8,0.1-1.1,0.1C1517,766.1,1517,752,1517,737.9L1517,737.9z" style="fill: rgb(76, 70, 67);"/>
        <path id="_x3C_Path_x3E__00000008833181264009641870000011465966079452148633_" class="st0" d="M780.2,1517 c-0.1,0.4-0.2,0.7-0.1,1.1c-14,0-28,0-42,0c0-0.4,0-0.8-0.1-1.1C752,1517,766.1,1517,780.2,1517L780.2,1517z" style="fill: rgb(83, 77, 73);"/>
        <path id="_x3C_Path_x3E__00000076595721351005790400000013962251897196922760_" class="st0" d="M0,744.1c0.4,0,0.8-0.1,1.1-0.1 c0,10.5,0,21,0,31.4c-0.4-0.1-0.8-0.1-1.1-0.1C0,764.9,0,754.5,0,744.1L0,744.1z" style="fill: rgb(83, 77, 73);"/>
        <path id="_x3C_Compound_Path_x3E_" class="st2" d="M1.1,775.4c0-10.5,0-21,0-31.4C2.8,679.7,11.7,616.6,29,554.7 c12.4-44.4,28.8-87.2,49-128.6c25.1-51.4,55.7-99.4,91.8-143.7c49.5-60.9,106.9-113.2,172.5-156.4c63.7-41.9,132-73.6,205-95 c45.6-13.4,92.1-22.3,139.5-26.5c14.3-1.2,28.6-2.2,42.9-3.3c14.8,0,29.7-0.1,44.5-0.1C828.8,2,882.8,8.3,935.6,21.9 c35.7,9.2,71,20.9,105.6,33.8c44.7,16.6,86.5,39.2,126.6,65c35.2,22.7,68.4,48,99.4,76.3c38.2,34.8,72.8,72.6,103.3,114.3 c31.5,43.1,58.2,88.9,80.2,137.5c17.9,39.6,31.9,80.6,42.7,122.6c8.8,34.3,15.8,69.1,18.8,104.5c1.8,20.7,3.2,41.4,4.7,62 c0,14.1,0,28.2,0,42.3c-12.8,402.7-334,724.5-736.8,736.8c-14.1,0-28.2,0-42.3,0c-63.7-2.2-126.4-11.4-187.7-29.1 c-74.3-21.4-143.9-53.3-208.3-96c-64.9-43-121.9-94.8-171.1-155.2C123.5,1178.7,86,1115,57.3,1046 c-18.3-44.1-32.2-89.8-41.2-136.6C11,882.9,7.9,855.9,4.8,829C2.8,811.3,2.3,793.3,1.1,775.4L1.1,775.4z M1119.1,1408 c22.7-13.9,46.6-26.2,67.9-42.1c29.1-21.6,56.8-45,83.9-69.1c16.5-14.6,31-31.6,45.9-47.9c24.5-26.8,46.3-55.8,65.9-86.4 c1.1-1.7,1.7-4.6,1.1-6.4c-9.8-27.2-25.8-49.7-50.4-65.7c-3.2-2.1-4.9-2.2-6.9,1.6c-5.3,9.8-10.7,19.6-16.7,29 c-10.9,17.1-21.7,34.3-33.7,50.6c-14.4,19.5-29.2,38.8-45.2,56.9c-26.8,30.1-58,55.2-92.6,76c-21.2,12.7-42.2,25.7-64.1,37.2 c-20.1,10.6-40.9,19.7-61.8,28.7c-15.5,6.7-31.6,12.2-47.4,18.2c-4.4-0.2-8.7-1.7-8.2-6.5c0.4-3.2,3.2-7.6,6-8.8 c10.5-4.7,21.7-7.8,32.2-12.4c26.5-11.8,53.2-23.3,79.1-36.4c20.2-10.2,39.3-22.5,58.6-34.5c10.2-6.4,19.7-14,29.5-21.1 c0.9-0.4,2-0.5,2.7-1.1c17.7-16,36-31.4,52.8-48.3c13.5-13.7,26.5-28.3,37.4-44.2c20.2-29.3,38.8-59.8,57.9-89.9 c2.1-3.3,4.1-7.1,4.6-10.9c3.9-27.9-0.8-55-10.6-81c-11.4-30.3-29.2-57.2-48.1-83.2c-9.5-13-20.2-25.2-31.1-37.1 c-15.8-17.3-31.6-34.7-54.1-43.8c-1.5,6.7-3.5,13.8-4.5,21c-3.6,25.2-11.9,49-21.9,72.2c-13.5,31.2-32.6,59.3-52.6,86.6 c-16.7,22.8-33.1,45.7-50.6,67.8c-20.5,25.9-44.6,48.4-70.4,68.9c-15.7,12.5-32.7,23.5-49.3,34.9c-3.9,2.7-8.8,5-12.7-0.5 c-3.1-4.4-0.8-9.8,4.9-13.3c9.2-5.8,18.7-11.5,27.4-18.1c13.5-10.2,26.5-21,39.4-31.9c21.2-17.9,40.5-37.8,57.4-59.8 c17.9-23.3,34.8-47.5,51.6-71.7c10.2-14.7,20-29.8,29.1-45.2c13.3-22.6,23-47,28.8-72.5c5.8-25.6,14.4-50.9,5.9-78.4 c-9.7-31.1-15.2-63.4-31.7-92.4c-15.1-26.5-27.8-54.5-43.1-80.9c-16.8-28.8-39.4-53.2-63.7-75.9c-3.2-3-7.1-5.4-11.9-8.9 c0,3.1-0.1,4.4,0,5.7c1.6,17.2,4.9,34.5,4.5,51.7c-0.7,28.2-3.4,56.3-6,84.4c-0.9,9.8-3.5,19.5-5.7,29.2c-1.1,4.8-5.5,6.6-9.3,5 c-2.4-1-5.2-5.5-4.9-8c2.9-21.6,7-43.1,9.7-64.7c4.3-34.1,2.2-68.3-4.7-101.8c-4.4-21.4-11.6-42.2-18.2-63.1 c-2.2-7-5.7-14.1-14.6-15c-24.1-2.4-45.6,2.1-65.1,18.3c-17.5,14.5-29.3,31.4-35,53.1c-0.7,2.7-5.6,5.5-8.9,6 c-4.2,0.7-5.3-3.3-5.1-7.1c0.1-1.8-0.2-3.8,0.4-5.3c5.2-11.5,9.8-23.5,16.2-34.4c4.6-7.9,11.7-14.3,18.4-22.4 c-20.6-6.5-40.3-13.5-60.5-18.8c-16.3-4.3-33-7.3-49.8-9.3c-18.8-2.2-37.8-4-56.7-3.7c-20.8,0.4-41.8,2.2-62.4,5.5 c-19.4,3.1-38.8,7.4-57.3,13.8c-30.3,10.5-54.6,30.4-77.5,52.7c-26.5,25.8-46.6,55.9-63.6,88.3c-7.9,19.7-15.8,39.4-23.7,59.1 c-2.2,5.4-2,8.3,5.2,10.9c24,8.8,35.2,28.4,39.5,52.5c0.5,6.7-1.5,12.6-6.4,17.3c-7.9,5.2-16.2,3.6-24.1,0.9 c-8.3-2.8-16.1-6.9-23.9-10.3c0,19.5,0,39.3,0,59.2c1.3,6.6,0,12.2-6,16.2c-23.2,15.5-39.2,37.7-54.7,60.2c-3.1,4.4-5.1,9.5-8,15 c8.1-2.2,15-4.9,22.1-5.9c14.7-2,28.2,3.1,41.7,8.4c11.9,4.6,23.7,9.1,32.1,19.4c12.1,16.8,14.9,34.2,3.2,52.3 c-2.9,4.5-5.8,9.2-9.7,12.8c-7.3,6.7-14.5,14.1-23.2,18.3c-8.8,4.3-18,6.6-25.3,14.5c-4.2,4.6-3.6,6.3,0.3,9.2 c1.9,1.4,4,3,6.2,3.4c13.3,2.8,26.6,6.8,40.1,7.6c21.9,1.2,44,0.5,66,0.2c6.9-0.1,13.8-1.2,20.7-2.1 c21.5-2.9,39.7-13.3,57.2-25.4c12.3-8.5,24.3-16.6,32.8-29.7c6.4-9.8,16.6-9.6,25.2-1.5c7.9,7.5,5.9,15.2-4.2,19.2 c-7.8,3-15.8,5.8-22.9,10c-14,8.4-27.4,17.8-41.3,26.6c-13.5,8.6-28.3,14.6-44.2,15.8c-24.5,1.8-49,2.6-73.6,2.7 c-24.6,0.1-49.2-0.7-71.2-14.4c-1.1-0.7-3.9,1.4-5.9,2.2c0.6,1.3,0.9,3.3,1.9,4c7.4,4.7,14.7,9.7,22.4,13.7 c23.9,12.4,50.2,14.6,76.2,15.8c16.7,0.8,33.9-0.6,50.3-3.6c18.4-3.4,37.1-8,54.1-15.5c33-14.5,63.7-33.6,93-54.9 c2.2-1.6,7.2-1.7,9.4-0.2c2,1.3,2.9,5.8,2.6,8.7c-0.2,1.9-3.1,4-5.2,5.3c-20,12.8-40,25.5-60.2,38 c-41.3,25.5-86.2,38.5-134.8,38.1c-7.3-0.1-14.6,0-21.3,0c3.5,8.7,8.1,17.6,10.5,27.1c7.8,30.9,10.7,62.7,10,94.4 c-1.2,48.1-3.7,96.2-6.4,144.2c-2,35.3-5.2,70.4-7.9,105.7c-0.3,3.6-0.1,6.4,4.2,7.9c19.1,6.8,37.9,14.7,57.3,20.7 c38.6,11.9,77.6,22.7,118,27.3c26,2.9,51.9,7.1,78,7.9c39.8,1.3,79.7,1.5,119.3-4.4c24.2-3.6,48.9-5.7,72.6-11.6 c35.4-8.8,70.8-18.7,105-31.4c31.5-11.7,61.4-27.6,92-41.8C1116.4,1411,1117.6,1409.3,1119.1,1408L1119.1,1408z M83.3,1068.7 c0.8,0.1,1.5,0.1,2.3,0.1c1.1-7.1,2.1-14.3,3.4-21.4c6.3-33.6,12.9-67.2,19.1-100.8c6.5-35.2,12.4-70.5,19.4-105.6 c5.2-26.3,11.4-52.4,17.4-78.6c3.8-16.7,8.2-33.2,12-49.9c6.1-26.5,11.8-53.1,17.9-79.7c5-21.7,10.8-43.2,15.7-65 c7.4-32.7,13.9-65.6,21.6-98.3c6.7-28.4,13.9-56.8,22.3-84.8c3.8-12.7,10.8-24.6,17.2-36.5c3.8-7,11.6-9.3,18.9-9.9 c18.6-1.6,36.8,1.2,54.7,6.9c28.9,9.3,37.6,32.9,32.2,54.7c-6,24.1-13.7,47.7-20,71.7c-7.5,28-14.2,56.2-21.4,84.4 c-14.9,58.2-29.6,116.4-44.8,174.5c-6.7,25.5-13.9,51-21.4,76.3c-9.4,32.2-19.1,64.3-28.9,96.4c-9.3,30.2-18.9,60.2-28.6,90.2 c-8.8,27.4-18,54.6-26.5,82.1c-8.7,28.3-16.7,56.8-25.2,85.1c-1.7,5.7-1,10.4,2.6,15.1c3.8,4.9,6.9,10.3,10.9,15.1 c21.4,26,41.9,52.8,64.8,77.6c20.1,21.8,41.8,42.5,64.7,61.3c25.2,20.7,51.8,40,79.3,57.3c27.8,17.5,57.5,31.8,86.5,47.3 c0.8,0.4,3.9-1.2,4-2.1c0.7-4.9,0.6-9.9,1-14.9c2-24.6,4.3-49.3,6.1-73.9c1.5-19.5,2.9-39,3.6-58.5c1.3-39.7,3-79.4,2.9-119.2 c-0.1-24.9-2.8-49.8-10.2-73.8c-4.2-13.5-11.1-24.3-25.9-28.9c-13.6-4.3-27.2-9.3-39.8-15.9c-16-8.4-31-18.9-46.6-28.2 c-25.4-15.2-36-38.7-36.8-67.1c-0.9-32.9,11.7-61.8,27.6-89.7c16.7-29.2,37-55.3,63.7-76.1c1.3-1,2.5-3.4,2.4-5 c-2.4-29.4-1.3-58.6,1.3-87.9c2.1-23.6,6.3-46.9,15.8-68.3c12.4-28,26.8-55.2,42.2-81.8c13.3-23,32.1-42,51.3-60.5 c2-1.9,3.1-5.8,2.8-8.6c-2.7-28,0.6-54.7,17.7-78.1c1.8-2.4,5.7-4.7,8.7-4.7c26.8,0.3,50.4,9.2,68.9,29c3.8,4.1,7.5,5.2,12.6,4.2 c5.1-1,10.1-2,15.2-2.5c24.2-2.4,48.5-5.4,72.8-6.8c13.8-0.8,27.8,0.8,41.6,2.3c18.1,2,36.3,4,54,7.9 c27.2,5.9,53.9,13.7,79.4,25.3c2.4,1.1,6.2,1.4,8.4,0.2c18-9.9,37.2-13.9,57.5-13c13.7,0.6,25.3,5.9,30.6,19.8 c5.2,14,9.8,28.2,14.9,42.2c1.1,3.1,2.7,6.3,5,8.5c4,3.8,8.8,6.8,13.2,10.3c34.9,27.8,63.6,61.1,85.4,100 c16.7,29.8,31.6,60.6,47,91.1c3.7,7.2,6.4,15.1,8.7,22.9c6.7,22.6,12.8,45.4,19.5,68c2.9,9.7,8.4,17.2,17.9,22.1 c6.8,3.5,13.3,8.2,18.8,13.4c34.9,33.1,65.1,70,89.2,112c21.4,37.2,34.1,76.2,31.5,119.6c-0.1,2.2,2.2,5,4.1,6.8 c11.7,10.5,24.7,19.7,35.1,31.3c9.2,10.2,15.5,23.1,23.4,35.1c33.8-55,59.4-114.2,77.3-176.6c33.6-116.8,38.5-235.1,14.1-354 c-26.7-130.5-84.2-246.4-173.4-345.5C1182.8,119.5,1019.2,35.9,823.8,19C629.5,2.3,453.4,54,300.1,174.5 C140.2,300.3,46.7,466.3,21.3,668.1C3.7,806.9,24.3,941.2,83.3,1068.7L83.3,1068.7z M126.3,1150.1c0.7-0.1,1.4-0.2,2.1-0.3 c0.6-1.8,1.2-3.6,1.8-5.5c3.3-11.3,6.3-22.6,9.8-33.8c9.9-32,19.9-64.1,30.1-96c8.2-25.7,17-51.2,25.2-77 c12.2-38.4,24.3-76.9,36-115.4c7.3-24.1,13.9-48.4,20.6-72.7c6.7-24.5,13.3-49,19.4-73.7c8.8-35.5,17-71.1,25.9-106.6 c8.9-35.4,18.3-70.7,27.7-106c6-22.4,12.8-44.6,18.6-67.1c3.5-13.7-3.8-27.9-15.9-33.1c-17.7-7.7-36.2-10.4-55.5-9 c-6.7,0.5-11.5,4.5-13.4,9.6c-6.7,17.9-13.6,35.9-18.2,54.5c-9.2,36.7-17,73.8-25.5,110.8c-4.6,20-9.4,40-14.1,59.9 c-5.8,24.9-11.6,49.9-17.3,74.8c-8.2,35.8-16.6,71.5-24.7,107.4c-6,26.5-11.9,53.1-17.3,79.7c-4.8,23.9-8.9,48-13.3,72 c-4.8,25.7-9.5,51.5-14.5,77.2c-4.8,24.7-9.9,49.4-15,74c-2.9,13.7-4.2,27,6.3,38.4c0.8,0.8,1.1,2.1,1.6,3.2 C113.2,1127,119.7,1138.6,126.3,1150.1L126.3,1150.1z M597.2,428.7c-11.7-11.9-26.6-18.8-43.6-20.8c-11.4-1.4-13.8,0.9-17.5,12.1 c-0.4,1.3-1.2,2.5-1.7,3.8c-5.7,13.7-6,28-4.9,41.8C552,453.4,574.4,441.2,597.2,428.7L597.2,428.7z M323.8,945.8 c-0.5,0.2-1,0.4-1.5,0.6c0.2,3.5,0.3,7,0.7,10.5c2.4,19.6,9.5,36.5,26.8,47.8c5.5,3.6,12,3.2,15.5-1.3c3.5-4.5,2.2-9.9-2.7-14.7 c-7.3-7.1-14.2-14.5-21-22C335.4,960,329.7,952.8,323.8,945.8L323.8,945.8z M427.3,709.6c0-4-0.5-6.6,0.1-9 c1.3-5.5,3-10.8,4.7-16.2c0.5-1.7,1.6-3.3,2.4-4.9c-2.9-1.3-5.7-2.8-8.6-3.7c-0.3-0.1-2,2.8-2.4,4.5c-1,3.8-1.9,7.7-2.2,11.6 C420.7,697.9,420.9,703.8,427.3,709.6L427.3,709.6z" style="clip-rule: evenodd; fill: rgb(24, 20, 17); fill-rule: evenodd;"/>
        <path id="_x3C_Compound_Path_x3E__00000057114821890121841410000011438851895753971595_" class="st3" d="M 83.3 1068.7 C 24.4 941.1 3.7 806.8 21.3 668.1 C 46.8 466.3 140.2 300.2 300.2 174.5 C 453.5 54 629.6 2.3 823.8 19 C 1019.2 35.8 1182.8 119.5 1314 265.1 C 1403.3 364.2 1460.7 480.1 1487.4 610.6 C 1511.8 729.5 1506.9 847.9 1473.3 964.6 C 1455.4 1027 1429.7 1086.2 1396 1141.2 C 1388.1 1129.1 1381.8 1116.3 1372.6 1106.1 C 1362.2 1094.5 1333.3 1070.2 1333.4 1068 C 1336 1024.6 1323.3 985.6 1301.9 948.4 C 1277.8 906.5 1247.6 869.6 1212.7 836.4 C 1207.1 831.1 1200.7 826.5 1193.9 823 C 1184.4 818.1 1178.9 810.6 1176 800.9 C 1169.3 778.3 1163.2 755.5 1156.5 732.9 C 1154.2 725.1 1151.4 717.3 1147.8 710 C 1132.4 679.5 1117.5 648.7 1100.8 618.9 C 1079.1 580.1 1050.3 546.8 1015.4 518.9 C 1011 515.4 1006.2 512.4 1002.2 508.6 C 999.9 506.4 998.3 503.1 997.2 500.1 C 992.1 486.1 987.5 471.9 982.3 457.9 C 977.1 444 965.5 438.7 951.7 438.1 C 931.5 437.2 912.2 441.2 894.2 451.1 C 892.1 452.3 888.2 452 885.8 450.9 C 860.3 439.3 833.6 431.5 806.4 425.6 C 788.7 421.7 770.5 419.7 752.4 417.7 C 738.6 416.2 724.6 414.7 710.8 415.4 C 686.5 416.7 662.3 419.7 638 422.2 C 632.9 422.7 627.8 423.7 622.8 424.7 C 617.7 425.7 614 424.6 610.2 420.5 C 591.6 400.6 568.1 391.8 541.3 391.5 C 538.4 391.5 534.4 393.7 532.6 396.2 C 515.5 419.6 512.1 446.2 514.9 474.3 C 515.2 477.1 514 481.1 512.1 482.9 C 492.9 501.3 474.1 520.3 460.8 543.4 C 445.5 569.9 431 597.2 418.6 625.2 C 409.1 646.6 405 669.9 402.8 693.5 C 400.2 722.8 399.1 752.1 401.5 781.4 C 401.6 783 400.4 785.4 399.1 786.4 C 372.4 807.2 352.1 833.3 335.4 862.5 C 319.5 890.3 306.8 919.3 307.8 952.2 C 308.6 980.6 319.2 1004.1 344.6 1019.3 C 360.2 1028.6 375.1 1039.1 391.2 1047.5 C 403.8 1054.1 417.4 1059.1 431 1063.4 C 445.8 1068.1 452.7 1078.8 456.9 1092.3 C 464.3 1116.3 467 1141.3 467.1 1166.1 C 467.2 1205.8 465.6 1245.5 464.2 1285.3 C 463.5 1304.8 462.1 1324.3 460.6 1343.8 C 458.8 1368.5 456.5 1393.1 454.5 1417.7 C 454.1 1422.7 454.1 1427.7 453.5 1432.6 C 453.4 1433.5 450.3 1435.1 449.5 1434.7 C 420.5 1419.2 390.8 1404.9 363 1387.4 C 335.4 1370.1 308.9 1350.8 283.7 1330.1 C 260.8 1311.3 239.1 1290.6 219 1268.8 C 196.2 1244.1 175.7 1217.3 154.2 1191.2 C 150.3 1186.4 147.1 1181 143.3 1176.1 C 139.7 1171.4 139 1166.7 140.7 1161 C 149.2 1132.7 157.1 1104.2 165.9 1075.9 C 174.4 1048.4 183.6 1021.2 192.4 993.8 C 202 963.8 211.7 933.7 221 903.6 C 230.9 871.5 240.5 839.4 249.9 807.2 C 257.3 781.9 264.6 756.4 271.3 730.9 C 286.4 672.8 301.2 614.6 316.1 556.4 C 323.3 528.3 330.1 500.1 337.5 472 C 343.9 448 351.5 424.4 357.5 400.3 C 362.9 378.5 354.2 354.9 325.3 345.6 C 307.4 339.9 289.2 337.1 270.6 338.7 C 263.4 339.3 255.5 341.7 251.7 348.6 C 245.3 360.4 238.3 372.3 234.5 385.1 C 226.1 413.1 218.9 441.4 212.2 469.9 C 204.5 502.5 198 535.5 190.6 568.2 C 185.7 589.9 179.9 611.5 174.9 633.2 C 168.7 659.7 163 686.3 157 712.9 C 153.2 729.6 148.8 746.1 145 762.8 C 139 789 132.8 815.1 127.6 841.4 C 120.7 876.5 114.8 911.8 108.2 947 C 102 980.6 95.4 1014.2 89.1 1047.8 C 87.8 1054.9 86.8 1062 85.7 1069.2 C 84.8 1068.8 84.1 1068.8 83.3 1068.7 Z M 780.9 235.3 C 779.9 251.4 788.4 253.7 800.7 256.7 C 811.1 259.2 821.8 260.4 832.3 262.5 C 852.1 266.5 871.6 272.6 892.1 269.9 C 901.1 268.7 909.3 265.7 916.9 260.1 C 927.3 252.4 931.8 241.5 935.2 230.1 C 937 224.1 936.4 216.9 934.9 210.7 C 932.1 199.1 924.1 190.7 914.7 183.7 C 913.7 182.9 913.1 181.6 912.3 180.6 C 913.4 180 914.5 179.2 915.6 178.7 C 939 170.3 949.6 143.6 939.6 120.7 C 932.1 103.5 917.8 96.3 901.2 92.6 C 877.6 87.3 853.8 82.9 830 78.2 C 822 76.6 813.7 80.4 810.7 88 C 807.7 95.8 805.9 104.2 804.2 112.5 C 801.2 126.9 798.8 141.3 795.9 155.7 C 792 175.2 787.7 194.6 783.9 214 C 782.5 221.1 781.9 228.2 780.9 235.3 Z M 660.8 266.4 C 671.7 264.6 683 263.9 693.5 260.8 C 724 251.8 742 229.9 748.9 199.8 C 755.5 171.2 750.2 143.6 736.2 117.9 C 724.2 96 705.1 82.9 680.8 79.7 C 662 77.3 642.9 79.2 624.4 85.9 C 592.1 97.7 573.7 125.7 572.4 158.3 C 571.7 174.9 572.8 191.5 578.6 207.2 C 582.3 217.2 586.7 227.5 593.2 235.7 C 610.2 257.1 633.5 266 660.8 266.4 Z M 552.6 243.2 C 550.2 234.5 548.2 221.3 543.1 209.5 C 534.8 190.1 524.4 171.7 507.1 158.2 C 495.7 149.3 483.3 143.8 469 142.8 C 453 141.7 438.2 146.2 424.2 153.4 C 408.2 161.6 392.7 170.7 376.4 178.2 C 364.7 183.5 362.6 193.3 366 202 C 370.3 213.2 376.5 223.7 382 234.4 C 398 265.8 414.1 297.1 430.2 328.4 C 436.4 340.5 443.1 345.1 458.2 338.2 C 478.3 329 497.8 318.4 517.1 307.6 C 540.3 294.7 549.7 273 552.6 243.2 Z M 1148.5 240.5 C 1148.7 225 1143.2 211.2 1135.1 198.5 C 1122 177.9 1101.9 166.1 1079.7 157.9 C 1065 152.4 1049.2 153 1034.3 157.1 C 1018.2 161.5 1004.2 170.8 993.2 183.6 C 974.6 205.3 962.8 229.8 962.3 259.1 C 962 281.5 971.4 299.7 987 314.1 C 1008.9 334.2 1034.7 346.7 1065.5 343 C 1074.9 341.9 1084.6 338.3 1093.1 333.9 C 1106.1 327.2 1116 316.5 1124.5 304.4 C 1138.1 285.1 1147.8 264.6 1148.5 240.5 Z" style="clip-rule: evenodd; fill-rule: evenodd; fill: rgb(67, 67, 69);"/>
        <path id="_x3C_Compound_Path_x3E__00000115487965645837716190000012831249624591792306_" class="st4" d="M464.4,731.4 c4.9-4.8,6.8-10.6,6.4-17.3c0.6,1.1,1.2,2.2,2.3,4.1c3.4-8.9,2.9-17.2,0.6-25.2c-2.6-9.2-7.1-17.8-9-27 c-4.7-23.1-8.4-46.4-12.6-69.6c-0.3-1.7-1.5-3.2-2.4-4.7c17-32.4,37.2-62.5,63.6-88.3c22.8-22.3,47.2-42.2,77.5-52.7 c18.5-6.4,38-10.7,57.3-13.8c20.6-3.3,41.6-5.1,62.4-5.5c18.9-0.3,37.9,1.4,56.7,3.7c16.7,2,33.5,5,49.8,9.3 c20.2,5.3,39.9,12.3,60.5,18.8c-6.8,8-13.8,14.5-18.4,22.4c-6.4,10.9-11,22.8-16.2,34.3c-0.7,1.5-0.4,3.5-0.4,5.3 c-0.2,3.8,1,7.8,5.1,7.1c3.3-0.5,8.2-3.3,8.9-6c5.7-21.8,17.5-38.6,35-53.1c19.5-16.2,41-20.7,65.1-18.3c8.9,0.9,12.4,8,14.6,15 c6.6,20.9,13.8,41.7,18.2,63.1c6.9,33.5,9,67.7,4.7,101.8c-2.7,21.6-6.8,43.1-9.7,64.7c-0.3,2.5,2.5,7,4.9,8 c3.8,1.6,8.2-0.1,9.3-5c2.2-9.7,4.8-19.4,5.7-29.2c2.5-28.1,5.3-56.2,6-84.4c0.4-17.2-2.9-34.5-4.5-51.7c-0.1-1.3,0-2.6,0-5.7 c4.8,3.5,8.6,5.9,11.9,8.9c24.3,22.7,46.9,47.1,63.7,75.9c15.4,26.4,28,54.4,43.1,80.9c16.5,29,22,61.3,31.7,92.4 c8.6,27.5-0.1,52.8-5.9,78.4c-5.8,25.5-15.5,49.9-28.8,72.5c-9.1,15.5-18.9,30.5-29.1,45.2c-16.8,24.2-33.7,48.4-51.6,71.7 c-16.9,22-36.2,41.8-57.4,59.8c-12.9,10.9-26,21.7-39.4,31.9c-8.7,6.6-18.1,12.3-27.4,18.1c-5.6,3.6-8,8.9-4.9,13.3 c3.8,5.5,8.7,3.2,12.7,0.5c16.6-11.4,33.5-22.4,49.3-34.9c25.8-20.5,50-42.9,70.4-68.9c17.4-22.1,33.9-45.1,50.6-67.8 c20-27.4,39.1-55.4,52.6-86.6c10-23.1,18.3-47,21.9-72.2c1-7.2,3.1-14.3,4.5-21c22.5,9.2,38.3,26.6,54.1,43.8 c10.9,11.9,21.6,24.1,31.1,37.1c18.9,26,36.7,52.9,48.1,83.2c9.8,26,14.5,53.1,10.6,81c-0.5,3.8-2.5,7.6-4.6,10.9 c-19.1,30.1-37.7,60.6-57.9,89.9c-10.9,15.8-23.8,30.5-37.4,44.2c-16.8,16.9-35.1,32.3-52.8,48.3c-0.7,0.6-1.8,0.8-2.7,1.1 c-1.9-8.7-2.8-17.8-5.9-26c-6.7-17.6-18-32.5-32.3-44.7c-15.2-13-35.8-18.5-53.7-5c-16.7,12.6-33.9,24.5-50.6,37.2 c-29.4,22.4-61.2,40.4-95.2,54.8c-18,7.7-36.6,11.6-56,7.3c-14.2-3.1-28.2-7.3-42-11.8c-25.8-8.4-43.6-25.3-49-52.3 c-3-14.9-4.3-30.6-3.1-45.6c1.5-17.9,7.4-35.3,22.1-47.7c17.2-14.4,34.7-28.4,52.2-42.4c22-17.7,42.2-37.1,59.8-59.2 c11.4-14.3,21.3-29.8,27.1-47.5c6.4-19.8,7.4-39.8,1.5-59.9c-3.1-10.5-6.1-21-9.3-31.4c-7.1-22.9-19.1-43.3-33.2-62.5 c-11.9-16.2-24.2-32.2-36.5-48c-17.3-22.1-38-39.6-64.8-49.3c-18.7-6.8-33.9-18.5-44.7-35.3c-17.4-27-42.1-41.5-74.2-41.6 c-34.5-0.2-61.2,14.6-78.3,44.9c-4.2,7.4-5.4,16.4-8,24.6c-7.4,7.5-8.1,10.8-3.6,17.5c0.8,13-3,25.4-9.4,35.9 c-19.3,31.3-40.9,61-72.2,81.8c-17.5,11.5-34.9,23.3-55.3,29.2c-1.5,0.4-2.7,1.9-4.1,2.8c-8.3-10.4-20.2-14.8-32.1-19.5 c-13.5-5.2-27-10.4-41.7-8.4c-7.1,1-14,3.7-22.1,5.9c2.9-5.5,5-10.6,8-15c15.5-22.5,31.5-44.7,54.7-60.2c6-4,7.3-9.5,6-16.2 c0.6-0.1,1.3-0.1,1.7-0.4c12.2-11.5,24.6-22.9,36.4-34.8C458.5,741.8,461.1,736.3,464.4,731.4L464.4,731.4z M863,546.8 c-0.9,13,4.2,24.3,10.1,35.1c12.4,22.8,29.1,42.2,48.4,59.5c7.5,6.7,15.5,13.2,24.2,18.4c6.3,3.8,14,5.3,21.2,7.4 c4.4,1.3,6.6-1.6,7.3-5.7c0.6-3.9,1.1-7.9,1.5-11.8c1.5-14.6,3.2-29.2,4.5-43.9c1.1-12.7,2.5-25.5,2.2-38.1 c-0.4-13.2-2.5-26.5-4.2-39.6c-2.8-21-10.9-40.2-22.5-57.8c-1.5-2.4-6.3-4.8-8.6-4.1c-13.5,4.1-27.6,7.4-39.6,14.2 c-10,5.7-17.7,15.6-26,24C869.9,516.1,865.3,531,863,546.8L863,546.8z" style="clip-rule: evenodd; fill: rgb(177, 108, 79); fill-rule: evenodd;"/>
        <path id="_x3C_Compound_Path_x3E__00000034060142910201045040000004191642035538828683_" class="st5" d="M588.2,727.2 c2.6-8.2,3.9-17.2,8-24.6c17-30.3,43.8-45,78.3-44.9c32.1,0.2,56.8,14.6,74.2,41.6c10.8,16.9,26,28.6,44.7,35.3 c26.8,9.7,47.6,27.3,64.8,49.3c12.4,15.8,24.7,31.8,36.5,48c14,19.2,26,39.6,33.2,62.5c3.2,10.4,6.2,20.9,9.3,31.4 c5.9,20.1,4.9,40.1-1.5,59.9c-5.7,17.7-15.6,33.2-27.1,47.5c-17.6,22.1-37.8,41.5-59.8,59.2c-17.5,14-35,28.1-52.2,42.4 c-14.7,12.3-20.6,29.7-22.1,47.7c-1.3,15.1,0.1,30.8,3.1,45.6c5.4,26.9,23.2,43.9,49,52.3c13.8,4.5,27.8,8.7,42,11.8 c19.3,4.2,37.9,0.3,56-7.3c34-14.4,65.8-32.5,95.2-54.8c16.7-12.7,33.9-24.6,50.6-37.2c17.8-13.5,38.5-8,53.7,5 c14.3,12.2,25.6,27.1,32.3,44.7c3.1,8.2,4,17.3,5.9,26c-9.8,7.1-19.3,14.7-29.5,21.1c-19.2,12-38.4,24.2-58.6,34.5 c-25.9,13.2-52.6,24.7-79.1,36.4c-10.5,4.7-21.7,7.7-32.2,12.4c-2.8,1.3-5.6,5.6-6,8.8c-0.6,4.8,3.8,6.4,8.2,6.5 c-0.5,2.3-0.8,4.7-1.7,6.9c-3.5,9.6-0.2,20.2,8.5,25.1c12.3,6.8,25,8.6,38.5,3c20.1-8.3,40-17,60.4-24.5 c17.5-6.5,34.5-5.6,48.5,9c-1.5,1.3-2.8,3-4.5,3.8c-30.6,14.2-60.5,30.1-92,41.8c-34.2,12.7-69.6,22.6-105,31.4 c-23.7,5.9-48.3,7.9-72.6,11.6c-39.6,5.9-79.5,5.8-119.3,4.4c-26-0.9-52-5-78-7.9c-40.4-4.5-79.3-15.3-118-27.3 c-19.4-6-38.1-13.9-57.3-20.7c-4.3-1.5-4.5-4.3-4.2-7.9c2.7-35.2,5.9-70.4,7.9-105.7c2.7-48,5.2-96.1,6.4-144.2 c0.8-31.7-2.1-63.5-10-94.4c-2.4-9.5-7.1-18.4-10.5-27.1c6.7,0,14,0,21.3,0c48.6,0.3,93.5-12.6,134.8-38.1 c20.2-12.5,40.2-25.3,60.2-38c2.1-1.3,5-3.4,5.2-5.3c0.3-2.9-0.6-7.4-2.6-8.7c-2.2-1.5-7.2-1.4-9.4,0.2 c-29.3,21.3-60,40.4-93,54.9c-17,7.5-35.7,12-54.1,15.5c-16.5,3.1-33.6,4.4-50.3,3.6c-26.1-1.2-52.4-3.4-76.2-15.8 c-7.8-4-15.1-9-22.4-13.7c-1-0.7-1.3-2.6-1.9-4c2-0.8,4.8-2.9,5.9-2.2c22,13.8,46.6,14.5,71.2,14.4c24.5-0.1,49.1-0.9,73.6-2.7 c15.9-1.2,30.7-7.2,44.2-15.8c13.8-8.8,27.2-18.2,41.3-26.6c7.1-4.2,15.1-7,22.9-10c10.1-4,12.2-11.7,4.2-19.2 c-8.6-8.2-18.8-8.3-25.2,1.5c-8.6,13.1-20.6,21.2-32.8,29.7c-17.5,12.1-35.7,22.5-57.2,25.4c-6.9,0.9-13.8,2-20.7,2.1 c-22,0.3-44,1-66-0.2c-13.5-0.8-26.8-4.8-40.1-7.6c-2.2-0.5-4.3-2-6.2-3.4c-3.9-2.9-4.5-4.5-0.3-9.2c7.2-7.9,16.4-10.2,25.3-14.5 c8.7-4.2,15.9-11.6,23.2-18.3c3.9-3.6,6.8-8.3,9.7-12.8c11.7-18.2,9-35.6-3.2-52.3c1.4-1,2.6-2.4,4.1-2.8 c20.5-5.9,37.9-17.7,55.3-29.2c31.4-20.7,52.9-50.5,72.2-81.8c6.5-10.5,10.2-22.9,9.4-35.9c17.6,3.2,35.3,6.4,52.9,9.6 c19.4,3.5,38.7,2.7,55.8-7.4c12.7-7.5,24-17.7,35.3-27.3c7.4-6.2,5.5-12.1-3.8-15.1c-23.7-7.5-48-9.2-72.4-5.8 C628.5,702,606.3,710.2,588.2,727.2L588.2,727.2z M585.5,938.9l-0.2-0.2c-2.8-0.1-5.7-0.2-8.5-0.3c0.1,2.8-0.8,6.6,0.6,8 c1.4,1.4,5.2,0.4,8,0.5C585.3,944.2,585.4,941.6,585.5,938.9L585.5,938.9z M538.9,939.8c-0.4,0.8-0.8,1.5-1.2,2.3 c1,2.3,1.5,5.1,3.1,6.8c0.7,0.8,4.4,0.3,5.2-0.7c1.3-1.7,1.5-4.4,2.1-6.7C545,940.9,542,940.4,538.9,939.8L538.9,939.8z M521,991.2c3.2-4.2,6.4-6.5,6.5-9c0-1.7-4.1-5-6.3-5c-2.1,0-5.6,3.2-6,5.4C514.9,984.6,518.1,987.1,521,991.2L521,991.2z M495.9,997.9c3.2-3.4,7-6.1,6.6-7.1c-1.1-2.7-4-4.6-6.2-6.8c-1.8,1.9-4.9,3.6-5.1,5.6C491,991.7,493.5,994.1,495.9,997.9 L495.9,997.9z M553.7,967.1c-4.3-2.7-6.9-5.6-8.7-5.2c-2.3,0.5-4.7,3.5-5.8,5.9c-0.4,0.8,3.4,4.9,4.9,4.8 C546.8,972.2,549.2,969.8,553.7,967.1L553.7,967.1z M498.9,934.9c-2.7,3.7-5.6,6.1-5.3,7.7c0.5,2.4,3.4,4.2,5.3,6.3 c1.8-1.7,5.2-3.5,5.1-5C503.9,941.3,501.4,939,498.9,934.9L498.9,934.9z M509.1,932c0,1-0.1,1.9-0.1,2.9c2.3,1.5,4.5,4,6.9,4.1 c1.7,0,5.3-3.6,5-4.8c-0.7-2.5-3-5.4-5.3-6.1C513.9,927.6,511.2,930.6,509.1,932L509.1,932z M497.4,961.7c-2.7,4.1-5.5,6.6-5,8 c0.8,2.4,3.7,5.6,5.7,5.6c2,0,5.2-3.3,5.6-5.5C503.9,968.1,500.7,965.7,497.4,961.7L497.4,961.7z M550.8,956.2 c3.5,2.6,5.8,5.5,7.7,5.4c2.1-0.2,4-3.3,5.9-5.1c-2.2-2-4-4.7-6.6-5.6C556.6,950.4,554.2,953.5,550.8,956.2L550.8,956.2z M533.2,927.6c1,0,2,0,3,0c1.7-2.2,4.9-4.7,4.6-6.7c-0.3-2-3.8-4.3-6.3-5.1c-3.5-1.1-6,1.1-5.2,4.9 C529.9,923.2,531.9,925.3,533.2,927.6L533.2,927.6z M599,920.9c0,1.2,0,2.3,0.1,3.5c2.2,1.3,4.6,4,6.5,3.6c2-0.4,4.9-3.5,4.9-5.5 c0-1.8-3-4.9-5-5.2C603.6,917,601.2,919.6,599,920.9L599,920.9z M488.1,980.4c-4.1-2.9-6.4-5.7-8.3-5.5c-2.1,0.3-5.2,3.5-5.2,5.3 c0,1.9,3.2,4.9,5.3,5.3C481.7,985.8,484,983.1,488.1,980.4L488.1,980.4z M557.7,894.1c-2.6,3.3-5.5,5.5-5.2,7.1 c0.4,2.3,3.1,4.2,4.8,6.2c2.2-1.9,5.4-3.4,6.1-5.7C563.8,900.2,560.5,897.6,557.7,894.1L557.7,894.1z M475.4,952.7 c0,1.1-0.1,2.2-0.1,3.3c1.9,1.4,3.7,3.6,5.8,4.1c3.5,0.8,6.9-0.8,6-5c-0.5-2.3-3.3-4.8-5.6-5.6C480,949,477.5,951.5,475.4,952.7 L475.4,952.7z M521,950.6c-1.1,0.1-2.2,0.2-3.4,0.3c-1,2.1-2.3,4.2-2.7,6.4c-0.7,3.5,1,6.3,4.8,5.1c2.3-0.7,5.3-3.4,5.6-5.5 C525.6,955.1,522.6,952.7,521,950.6L521,950.6z M583.4,901c-2.4,3.9-5,6.2-4.6,7.9c0.5,2.1,3.3,3.8,5.2,5.6 c1.8-1.9,4.9-3.7,5.1-5.7C589.2,906.9,586.2,904.7,583.4,901z M563.6,936.6c3.2-3.8,6.3-5.9,6.2-7.8c-0.2-2.1-3.4-4-5.2-5.9 c-1.8,1.9-4.4,3.6-5,5.8C559.1,930.2,561.4,932.6,563.6,936.6L563.6,936.6z M463.3,974c3-3.8,6.2-6.6,5.7-7.3 c-1.3-2.3-3.8-4.3-6.2-5.2c-0.9-0.3-4.2,3-4.3,4.8C458.5,968.2,460.9,970.2,463.3,974L463.3,974z" style="clip-rule: evenodd; fill: rgb(217, 208, 201); fill-rule: evenodd;"/>
        <path id="_x3C_Path_x3E__00000080914749751469212640000011663115482882458544_" class="st6" d="M126.3,1150.1 c-6.6-11.6-13.1-23.2-19.7-34.8c-0.6-1-0.9-2.3-1.6-3.2c-10.6-11.4-9.2-24.7-6.3-38.4c5.2-24.7,10.2-49.3,15-74 c5-25.7,9.7-51.4,14.5-77.2c4.4-24,8.5-48,13.3-72c5.4-26.7,11.3-53.2,17.3-79.7c8.1-35.8,16.4-71.6,24.7-107.4 c5.8-25,11.5-49.9,17.3-74.8c4.6-20,9.5-39.9,14.1-59.9c8.5-36.9,16.3-74,25.5-110.8c4.7-18.5,11.5-36.5,18.2-54.5 c1.9-5.1,6.7-9.2,13.4-9.6c19.2-1.4,37.7,1.4,55.5,9c12.1,5.2,19.4,19.5,15.9,33.1c-5.8,22.5-12.6,44.7-18.6,67.1 c-9.4,35.3-18.8,70.6-27.7,106c-8.9,35.5-17.1,71.1-25.9,106.6c-6.1,24.6-12.7,49.2-19.4,73.7c-6.6,24.3-13.2,48.6-20.6,72.7 c-11.7,38.6-23.8,77-36,115.4c-8.2,25.7-17,51.3-25.2,77c-10.2,31.9-20.1,64-30.1,96c-3.5,11.2-6.5,22.5-9.8,33.8 c-0.5,1.8-1.2,3.7-1.8,5.5C127.6,1149.9,127,1150,126.3,1150.1L126.3,1150.1z" style="fill: rgb(235, 150, 33);"/>
        <path id="_x3C_Path_x3E__00000039830031081296406580000014316637108477308329_" class="st7" d="M1119.1,1408 c-14-14.6-30.9-15.4-48.5-9c-20.4,7.5-40.4,16.2-60.4,24.5c-13.4,5.6-26.2,3.8-38.5-3c-8.7-4.9-12-15.5-8.5-25.1 c0.8-2.2,1.1-4.6,1.7-6.9c15.8-6,31.9-11.5,47.4-18.2c20.9-9,41.7-18.2,61.8-28.7c21.8-11.5,42.9-24.5,64.1-37.2 c34.6-20.8,65.8-45.9,92.6-76c16.1-18.1,30.9-37.4,45.2-56.9c12-16.3,22.8-33.5,33.7-50.6c6-9.4,11.4-19.2,16.7-29 c2-3.7,3.7-3.7,6.9-1.6c24.5,16,40.6,38.5,50.4,65.7c0.7,1.8,0.1,4.7-1.1,6.4c-19.6,30.6-41.3,59.6-65.9,86.4 c-14.9,16.3-29.4,33.3-45.9,47.9c-27.1,24-54.8,47.5-83.9,69.1C1165.6,1381.8,1141.8,1394.1,1119.1,1408L1119.1,1408z" style="fill: rgb(175, 107, 79);"/>
        <path id="_x3C_Path_x3E__00000081608370375010719890000014223844150364573078_" class="st8" d="M449.8,591.6 c0.8,1.6,2.1,3,2.4,4.7c4.2,23.2,7.9,46.5,12.6,69.6c1.9,9.2,6.5,17.9,9,27c2.2,8,2.7,16.3-0.6,25.2c-1.1-1.9-1.7-3-2.3-4.1 c-4.4-24.2-15.5-43.7-39.5-52.5c-7.2-2.6-7.4-5.5-5.2-10.9C433.9,630.9,441.9,611.3,449.8,591.6L449.8,591.6z" style="fill: rgb(215, 203, 195);"/>
        <path id="_x3C_Path_x3E__00000057144636855858770270000003573782181069945012_" class="st9" d="M597.2,428.7 c-22.9,12.5-45.2,24.7-67.7,37c-1.1-13.8-0.7-28.1,4.9-41.8c0.5-1.3,1.2-2.5,1.7-3.8c3.7-11.2,6.1-13.5,17.5-12.1 C570.7,409.9,585.6,416.8,597.2,428.7L597.2,428.7z" style="fill: rgb(168, 106, 80);"/>
        <path id="_x3C_Path_x3E__00000042004964164267528620000009892179272221612216_" class="st10" d="M464.4,731.4 c-3.3,4.9-5.9,10.4-9.9,14.5c-11.8,11.9-24.2,23.3-36.4,34.8c-0.4,0.3-1.1,0.3-1.7,0.4c0-19.8,0-39.7,0-59.2 c7.8,3.4,15.6,7.4,23.9,10.3C448.2,735,456.6,736.6,464.4,731.4L464.4,731.4z" style="fill: rgb(212, 202, 194);"/>
        <path id="_x3C_Path_x3E__00000072996500924675253930000017466277074151576503_" class="st11" d="M323.8,945.8 c5.9,7,11.6,14.1,17.8,20.9c6.8,7.5,13.8,14.9,21,22c4.9,4.8,6.2,10.2,2.7,14.7s-10,4.8-15.5,1.3c-17.3-11.2-24.5-28.2-26.8-47.8 c-0.4-3.5-0.5-7-0.7-10.5C322.8,946.2,323.3,946,323.8,945.8L323.8,945.8z" style="fill: rgb(207, 200, 196);"/>
        <path id="_x3C_Path_x3E__00000067225551169574612690000006771095436800301961_" class="st12" d="M427.3,709.6 c-6.4-5.8-6.6-11.7-6-17.7c0.4-3.9,1.2-7.8,2.2-11.6c0.4-1.7,2.1-4.6,2.4-4.5c3,0.9,5.8,2.4,8.6,3.7c-0.8,1.6-1.9,3.2-2.4,4.9 c-1.7,5.3-3.4,10.7-4.7,16.2C426.9,703,427.3,705.5,427.3,709.6L427.3,709.6z" style="fill: rgb(222, 222, 222);"/>
        <path id="_x3C_Compound_Path_x3E__00000142174149864893500110000009489232815396896683_" class="st13" d="M780.9,235.3 c1-7.1,1.5-14.2,2.9-21.2c3.8-19.5,8.1-38.9,12-58.3c2.9-14.4,5.3-28.9,8.3-43.2c1.7-8.3,3.5-16.7,6.5-24.5 c3-7.7,11.2-11.4,19.3-9.8c23.8,4.6,47.6,9,71.2,14.4c16.6,3.8,30.9,10.9,38.4,28.1c10,22.9-0.6,49.6-24,58 c-1.2,0.4-2.2,1.2-3.3,1.9c0.8,1.1,1.4,2.4,2.4,3.1c9.5,7,17.5,15.4,20.2,27c1.5,6.2,2,13.4,0.3,19.4c-3.3,11.4-7.9,22.3-18.3,30 c-7.6,5.6-15.9,8.7-24.8,9.8c-20.5,2.7-40.1-3.5-59.8-7.4c-10.5-2.1-21.2-3.3-31.6-5.8C788.4,253.7,780,251.3,780.9,235.3 L780.9,235.3z M872.3,241.3c5.8-2.2,15.6-3,19.7-8.3c11.9-15.4,10.6-34-12.1-40.5c-15.6-4.5-31.6-7.3-47.5-10.6 c-0.9-0.2-3,1.9-3.3,3.3c-3.2,14.1-6.2,28.3-9,42.5c-0.2,1.1,1.5,3.7,2.6,3.9C838.5,234.8,854.3,237.8,872.3,241.3L872.3,241.3z M906.1,139.2c0-8.8-4.2-15.2-13.7-17.8c-15.1-4.1-30.4-7.4-45.6-10.7c-1.2-0.2-3.8,1.7-4.2,3.1c-2.6,10.6-4.9,21.2-7.2,31.9 c-0.2,1.1,0,2.4-0.2,3.6c-0.8,4.4,1.6,6.1,5.5,6.7c12.5,2.1,25,4.2,37.5,6.2C895.5,164.9,905.7,155,906.1,139.2L906.1,139.2z" style="clip-rule: evenodd; fill-rule: evenodd; fill: rgb(52, 74, 251);"/>
        <path id="_x3C_Compound_Path_x3E__00000137842780187945795700000016884681889461081011_" class="st13" d="M660.8,266.4 c-27.3-0.4-50.6-9.3-67.6-30.6c-6.5-8.2-10.9-18.6-14.6-28.5c-5.8-15.6-6.9-32.2-6.2-48.9c1.3-32.6,19.7-60.6,52-72.4 c18.5-6.8,37.6-8.7,56.4-6.2c24.3,3.1,43.4,16.3,55.4,38.2c14,25.7,19.3,53.3,12.7,81.9c-6.9,30.1-24.8,52-55.4,61 C683,263.9,671.8,264.6,660.8,266.4L660.8,266.4z M610.4,162.8c0.5,6.5,0.7,13.1,1.7,19.6c3,18,8.3,35.1,25.4,44.9 c6.3,3.6,13.8,5.8,21,7.1c15.9,2.9,29.9-2.8,40.5-14c9.3-9.9,13.4-22.8,13.8-36.6c0.3-13-1.2-25.6-5.8-37.9 c-5.3-14.2-12.4-26.6-27.3-32.8c-18.3-7.6-35.8-4.8-51,6.4C614.8,129.7,609.2,145.1,610.4,162.8L610.4,162.8z" style="clip-rule: evenodd; fill-rule: evenodd; fill: rgb(52, 74, 251);"/>
        <path id="_x3C_Compound_Path_x3E__00000114790060795318332890000017966023812428348077_" class="st13" d="M552.6,243.2 c-2.8,29.8-12.2,51.5-35.5,64.5c-19.3,10.8-38.8,21.4-58.9,30.6c-15.1,6.9-21.8,2.4-28-9.8c-16.1-31.3-32.2-62.7-48.2-94 c-5.5-10.7-11.6-21.2-16-32.4c-3.4-8.8-1.3-18.5,10.4-23.8c16.3-7.4,31.8-16.6,47.8-24.8c14-7.2,28.8-11.7,44.8-10.6 c14.4,1,26.7,6.5,38.1,15.4c17.3,13.5,27.7,31.9,36,51.3C548.1,221.4,550.2,234.5,552.6,243.2L552.6,243.2z M457.4,175.3 c-5.3,1.4-10.9,2.2-15.9,4.2c-10.1,4.1-19.9,9.2-30,13.4c-5.2,2.2-6.4,4.3-3.6,9.7c16.6,31.9,33.1,63.9,49,96.2 c2.6,5.2,4.5,4.7,8.4,2.5c8.7-4.8,17.8-9,26.4-13.9c21.9-12.5,26.8-29.8,21.1-49.3c-4.2-14.4-11.9-28.1-19.7-41.2 C485.4,184.2,473.5,176.5,457.4,175.3L457.4,175.3z" style="clip-rule: evenodd; fill-rule: evenodd; fill: rgb(52, 74, 251);"/>
        <path id="_x3C_Compound_Path_x3E__00000175303086406963500480000012997862330773151135_" class="st13" d="M1148.5,240.5 c-0.7,24-10.4,44.5-24,63.8c-8.5,12.1-18.4,22.8-31.4,29.5c-8.5,4.4-18.1,8-27.6,9.1c-30.8,3.6-56.6-8.8-78.5-28.9 c-15.7-14.4-25-32.6-24.7-55c0.4-29.3,12.2-53.8,30.9-75.5c11-12.8,25-22,41.1-26.5c14.8-4.1,30.6-4.7,45.4,0.8 c22.2,8.2,42.3,20,55.4,40.7C1143.2,211.2,1148.7,225,1148.5,240.5L1148.5,240.5z M1048.2,309.9c3.6-0.4,7.1-0.5,10.7-1.1 c14.1-2.5,23.6-11.6,32-22.4c11.4-14.6,19-30.8,20.4-49.3c1.2-15.5-6.4-27.4-17.2-37.8c-15.3-14.9-45.7-15.6-61.4-1.2 c-11.3,10.4-21.5,21.3-26.8,36.4c-4.6,13-7.6,26-5.5,39.6C1003.4,294.6,1028.2,311.4,1048.2,309.9L1048.2,309.9z" style="clip-rule: evenodd; fill-rule: evenodd; fill: rgb(52, 74, 251);"/>
        <path id="_x3C_Path_x3E__00000155110603569491566390000018018885872765305011_" class="st16" d="M863,546.8 c2.2-15.8,6.9-30.7,18.4-42.4c8.3-8.5,16-18.4,26-24c12-6.8,26.2-10.2,39.6-14.2c2.3-0.7,7,1.8,8.6,4.1 c11.5,17.6,19.6,36.8,22.5,57.8c1.8,13.2,3.9,26.4,4.2,39.6c0.4,12.7-1.1,25.4-2.2,38.1c-1.2,14.6-2.9,29.2-4.5,43.9 c-0.4,4-0.9,7.9-1.5,11.8c-0.7,4.1-2.8,7-7.3,5.7c-7.2-2.1-14.9-3.7-21.2-7.4c-8.7-5.1-16.6-11.7-24.2-18.4 c-19.2-17.2-36-36.7-48.4-59.5C867.3,571.1,862.2,559.8,863,546.8L863,546.8z" style="fill: rgb(219, 208, 200);"/>
        <path id="_x3C_Compound_Path_x3E__00000132794531625911590810000004714806722613041057_" class="st17" d="M588.2,727.2 c18.1-17,40.3-25.2,64.3-28.5c24.4-3.4,48.7-1.6,72.4,5.8c9.4,3,11.2,8.9,3.8,15.1c-11.4,9.6-22.6,19.8-35.3,27.3 c-17.1,10.1-36.4,10.9-55.8,7.4c-17.6-3.2-35.3-6.4-52.9-9.6C580.1,738,580.7,734.7,588.2,727.2L588.2,727.2z M607.5,730.5 c0.2,0.5,0.4,1.1,0.7,1.6c11.1,2.4,22.3,4.8,32.5,7c-2.1-6.9-4.1-13.6-6.4-21.5C625.9,721.8,616.7,726.2,607.5,730.5L607.5,730.5 z" style="clip-rule: evenodd; fill: rgb(14, 13, 13); fill-rule: evenodd;"/>
        <path id="_x3C_Path_x3E__00000121977515914035547660000014884381672106321333_" class="st18" d="M521,991.2 c-3-4.1-6.1-6.6-5.8-8.5c0.4-2.2,3.8-5.4,6-5.4c2.2,0,6.4,3.2,6.3,5C527.5,984.6,524.3,987,521,991.2L521,991.2z" style="fill: rgb(71, 66, 62);"/>
        <path id="_x3C_Path_x3E__00000022535752353109045840000017011134690741358737_" class="st18" d="M495.9,997.9 c-2.3-3.8-4.9-6.2-4.7-8.2s3.3-3.8,5.1-5.6c2.2,2.2,5.1,4.1,6.2,6.8C502.8,991.8,499.1,994.6,495.9,997.9L495.9,997.9z" style="fill: rgb(71, 66, 62);"/>
        <path id="_x3C_Path_x3E__00000060018606541370723940000013824940919705244038_" class="st18" d="M553.7,967 c-4.5,2.7-6.9,5.2-9.6,5.5c-1.5,0.2-5.3-4-4.9-4.8c1.1-2.5,3.4-5.4,5.8-5.9C546.8,961.4,549.4,964.3,553.7,967L553.7,967z" style="fill: rgb(71, 66, 62);"/>
        <path id="_x3C_Path_x3E__00000169552035452228978020000018076722229590154919_" class="st18" d="M498.9,934.9 c2.5,4.1,5,6.4,5.1,9c0.1,1.5-3.3,3.3-5.1,5c-1.9-2.1-4.8-3.9-5.3-6.3C493.3,941,496.2,938.6,498.9,934.9L498.9,934.9z" style="fill: rgb(71, 66, 62);"/>
        <path id="_x3C_Path_x3E__00000106841469164515299730000014788465350104967823_" class="st1" d="M509.1,932 c2.1-1.4,4.8-4.4,6.4-3.9c2.3,0.7,4.7,3.6,5.3,6.1c0.3,1.1-3.2,4.8-5,4.8c-2.3-0.1-4.6-2.6-6.9-4.1 C509,933.9,509,932.9,509.1,932L509.1,932z" style="fill: rgb(76, 70, 67);"/>
        <path id="_x3C_Path_x3E__00000168090876524049627740000009646054818924772025_" class="st0" d="M497.4,961.7c3.3,4,6.6,6.3,6.3,8 c-0.4,2.2-3.6,5.5-5.6,5.5c-2,0-4.9-3.2-5.7-5.6C491.9,968.3,494.7,965.8,497.4,961.7L497.4,961.7z" style="fill: rgb(83, 77, 73);"/>
        <path id="_x3C_Path_x3E__00000034780777281596488690000013399084658211172255_" class="st19" d="M550.8,956.2 c3.4-2.7,5.8-5.8,7-5.3c2.5,0.9,4.4,3.6,6.6,5.6c-2,1.8-3.8,4.9-5.9,5.1C556.6,961.8,554.4,958.8,550.8,956.2L550.8,956.2z" style="fill: rgb(64, 61, 58);"/>
        <path id="_x3C_Path_x3E__00000022544057609036648080000009088320505624090783_" class="st0" d="M533.2,927.6 c-1.3-2.3-3.3-4.4-3.8-6.9c-0.9-3.8,1.7-6,5.2-4.9c2.5,0.8,6,3.1,6.3,5.1c0.3,2-2.9,4.5-4.6,6.7 C535.2,927.6,534.2,927.6,533.2,927.6L533.2,927.6z" style="fill: rgb(83, 77, 73);"/>
        <path id="_x3C_Path_x3E__00000022549527059135142210000002746554901933629843_" class="st1" d="M599,920.9 c2.2-1.3,4.6-3.9,6.5-3.6c2,0.3,5,3.4,5,5.2c-0.1,2-2.9,5.1-4.9,5.5c-1.9,0.3-4.3-2.3-6.5-3.6C599,923.2,599,922.1,599,920.9 L599,920.9z" style="fill: rgb(76, 70, 67);"/>
        <path id="_x3C_Path_x3E__00000031929831119571765380000007714809736776132224_" class="st19" d="M488,980.4 c-4,2.7-6.4,5.5-8.2,5.1c-2.2-0.4-5.3-3.4-5.3-5.3c0-1.9,3.1-5,5.2-5.3C481.6,974.6,483.9,977.5,488,980.4L488,980.4z" style="fill: rgb(64, 61, 58);"/>
        <path id="_x3C_Path_x3E__00000115504635379908070710000011174201039921246135_" class="st18" d="M557.7,894.1 c2.8,3.5,6.1,6.1,5.7,7.5c-0.7,2.3-3.9,3.9-6.1,5.7c-1.7-2-4.4-3.9-4.8-6.2C552.2,899.5,555.1,897.4,557.7,894.1L557.7,894.1z" style="fill: rgb(71, 66, 62);"/>
        <path id="_x3C_Path_x3E__00000155104507135249579730000011510655397549609112_" class="st1" d="M475.4,952.7c2-1.2,4.5-3.6,6-3.1 c2.3,0.8,5.1,3.3,5.6,5.6c0.9,4.1-2.5,5.7-6,5c-2.1-0.5-3.9-2.7-5.8-4.1C475.3,954.9,475.4,953.8,475.4,952.7L475.4,952.7z" style="fill: rgb(76, 70, 67);"/>
        <path id="_x3C_Path_x3E__00000023959183554041870660000010013540867969955002_" class="st1" d="M521,950.6 c1.6,2.1,4.6,4.5,4.3,6.3c-0.3,2.1-3.3,4.8-5.6,5.5c-3.8,1.2-5.5-1.6-4.8-5.1c0.4-2.2,1.8-4.3,2.7-6.4 C518.7,950.8,519.9,950.7,521,950.6L521,950.6z" style="fill: rgb(76, 70, 67);"/>
        <path id="_x3C_Path_x3E__00000125568301473494388930000017224927620108185017_" class="st19" d="M583.4,901 c2.8,3.7,5.8,5.8,5.6,7.8c-0.2,2-3.3,3.8-5.1,5.7c-1.8-1.8-4.7-3.4-5.2-5.6C578.4,907.3,581,904.9,583.4,901z" style="fill: rgb(64, 61, 58);"/>
        <path id="_x3C_Path_x3E__00000155835593673769799620000013592413276478087077_" class="st19" d="M563.5,936.5 c-2.2-4-4.5-6.3-4.1-7.9c0.6-2.2,3.2-3.9,5-5.8c1.9,2,5,3.8,5.2,5.9C569.9,930.6,566.7,932.8,563.5,936.5L563.5,936.5z" style="fill: rgb(64, 61, 58);"/>
        <path id="_x3C_Path_x3E__00000102521841922479390010000015323189805069289858_" class="st19" d="M463.3,974 c-2.5-3.8-4.8-5.8-4.8-7.7c0.1-1.8,3.4-5.1,4.3-4.8c2.5,0.8,5,2.9,6.2,5.2C469.5,967.4,466.3,970.2,463.3,974L463.3,974z" style="fill: rgb(64, 61, 58);"/>
        <path id="_x3C_Path_x3E__00000032636578710654330530000007997508643319124159_" class="st19" d="M538.9,939.8 c3.1,0.6,6.2,1.2,9.2,1.8c-0.6,2.3-0.8,5-2.1,6.7c-0.8,1-4.5,1.5-5.2,0.7c-1.6-1.8-2.1-4.5-3.1-6.8 C538.1,941.3,538.5,940.5,538.9,939.8L538.9,939.8z" style="fill: rgb(64, 61, 58);"/>
        <path id="_x3C_Path_x3E__00000116917150215353596320000004551022975391805832_" class="st20" d="M585.5,938.9 c0,2.7-0.1,5.3-0.2,8c-2.8-0.1-6.6,0.9-8-0.5c-1.4-1.5-0.5-5.2-0.6-8c2.8,0.1,5.7,0.2,8.5,0.3c-1.4-0.1-3-0.7-4-0.2 c-1.5,0.7-3.6,2.1-3.7,3.4c-0.1,1.2,2,3.7,3.1,3.7c1.7,0,3.7-1.3,4.9-2.7C586.2,942.2,585.5,940.3,585.5,938.9L585.5,938.9z" style="fill: rgb(106, 101, 96);"/>
        <path id="_x3C_Path_x3E__00000060738853080841151800000000368345273985925776_" class="st20" d="M538.9,939.8 c-0.4,0.8-0.8,1.5-1.2,2.3C538.1,941.3,538.5,940.5,538.9,939.8z" style="fill: rgb(106, 101, 96);"/>
        <path id="_x3C_Path_x3E__00000047761521930032307640000007024991706180736938_" class="st21" d="M872.3,241.3 c-18.1-3.5-33.9-6.5-49.6-9.7c-1.2-0.2-2.8-2.8-2.6-3.9c2.8-14.2,5.8-28.4,9-42.5c0.3-1.3,2.4-3.5,3.3-3.3 c15.9,3.3,32,6.1,47.5,10.6c22.7,6.6,24,25.1,12.1,40.5C888,238.2,878.1,239,872.3,241.3L872.3,241.3z" style="fill: rgb(67, 67, 69);"/>
        <path id="_x3C_Path_x3E__00000003808448181541418690000006877797219770024893_" class="st21" d="M906.1,139.2 c-0.4,15.9-10.6,25.7-27.9,23c-12.5-2-25-4.2-37.5-6.2c-3.9-0.6-6.2-2.3-5.5-6.7c0.2-1.2-0.1-2.4,0.2-3.6 c2.3-10.6,4.5-21.3,7.2-31.9c0.3-1.3,3-3.3,4.2-3.1c15.3,3.3,30.5,6.6,45.6,10.7C901.9,124,906.1,130.3,906.1,139.2L906.1,139.2z " style="fill: rgb(67, 67, 69);"/>
        <path id="_x3C_Path_x3E__00000178886178955388124170000014169590516444774053_" class="st22" d="M610.4,162.8 c-1.2-17.7,4.4-33.1,18.4-43.4c15.2-11.2,32.7-14,51-6.4c14.9,6.2,22,18.6,27.3,32.8c4.6,12.3,6.2,24.9,5.8,37.9 c-0.4,13.8-4.5,26.8-13.8,36.6c-10.6,11.2-24.6,16.9-40.5,14c-7.2-1.3-14.7-3.5-21-7.1c-17.1-9.7-22.5-26.8-25.4-44.9 C611.1,175.9,611,169.3,610.4,162.8L610.4,162.8z" style="fill: rgb(67, 67, 69);"/>
        <path id="_x3C_Path_x3E__00000057128136713450834800000010579931554476091065_" class="st22" d="M457.4,175.3 c16.1,1.1,28,8.9,35.7,21.8c7.8,13.1,15.5,26.8,19.7,41.2c5.7,19.5,0.8,36.8-21.1,49.3c-8.6,4.9-17.7,9.1-26.4,13.9 c-3.9,2.1-5.8,2.7-8.4-2.5c-15.9-32.3-32.4-64.3-49-96.2c-2.8-5.4-1.6-7.5,3.6-9.7c10.1-4.2,19.9-9.3,30-13.4 C446.5,177.5,452.1,176.7,457.4,175.3L457.4,175.3z" style="fill: rgb(67, 67, 69);"/>
        <path id="_x3C_Path_x3E__00000039818855675827964540000009426317314204842164_" class="st22" d="M1048.2,309.9 c-19.9,1.4-44.8-15.4-48-35.8c-2.1-13.6,1-26.6,5.5-39.6c5.3-15.1,15.5-26.1,26.9-36.4c15.8-14.4,46.1-13.7,61.4,1.2 c10.7,10.5,18.3,22.3,17.2,37.8c-1.4,18.5-9,34.7-20.4,49.3c-8.4,10.8-17.8,20-32,22.4C1055.3,309.4,1051.7,309.6,1048.2,309.9 L1048.2,309.9z" style="fill: rgb(67, 67, 69);"/>
        <path id="_x3C_Path_x3E__00000031914764617165214760000015012278008561802378_" class="st23" d="M607.6,730.5 c9.2-4.4,18.3-8.7,26.8-12.8c2.3,7.8,4.3,14.5,6.4,21.5c-10.3-2.2-21.4-4.6-32.5-7C608,731.6,607.8,731.1,607.6,730.5 L607.6,730.5z" style="fill: rgb(228, 228, 228);"/>
        <path id="_x3C_Path_x3E__00000137814725790387008920000014900862634158159540_" class="st19" d="M585.5,938.9 c0.1,1.4,0.7,3.3,0,4c-1.3,1.3-3.3,2.7-4.9,2.7c-1.2,0-3.2-2.5-3.1-3.7c0.1-1.2,2.2-2.7,3.7-3.4c1.1-0.5,2.7,0.1,4,0.2 L585.5,938.9L585.5,938.9z" style="fill: rgb(64, 61, 58);"/>
      </g>
    </g>
  </g>
  <g transform="matrix(0.012043001130223272, 0, 0, -0.012043001130223274, 868.2319823969316, 150.88793732735962)" fill="#000000" stroke="none" style="">
    <path d="M11950 24989 c-2267 -94 -4462 -801 -6350 -2044 -3054 -2010 -5080 -5241 -5540 -8833 -19 -151 -60 -521 -60 -549 0 -10 1662 -13 8275 -13 l8275 0 0 -1050 0 -1050 -8275 0 c-6613 0 -8275 -3 -8275 -12 0 -29 41 -399 60 -550 263 -2054 1052 -4038 2276 -5719 1613 -2218 3897 -3843 6509 -4634 2713 -820 5664 -693 8285 357 344 138 584 246 940 424 520 260 860 457 1330 769 1025 679 1912 1474 2702 2419 839 1004 1522 2147 2009 3364 891 2224 1118 4684 653 7057 -547 2789 -2056 5329 -4254 7164 -601 502 -1271 962 -1950 1340 -391 218 -946 483 -1385 661 -1634 663 -3437 974 -5225 899z" style="fill: rgb(52, 74, 251);"/>
  </g>
</svg>